<?xml version="1.0" encoding="utf-8"?>
<!-- Generator: Adobe Illustrator 27.9.3, SVG Export Plug-In . SVG Version: 9.03 Build 53313)  -->
<svg version="1.1" id="Layer_1" xmlns="http://www.w3.org/2000/svg" xmlns:xlink="http://www.w3.org/1999/xlink" x="0px" y="0px"
	 viewBox="0 0 892 600" style="enable-background:new 0 0 892 600;" xml:space="preserve">
<style type="text/css">
	.st0{fill:#FFFFFF;}
	.st1{fill:#002B7F;}
	.st2{fill:#939598;}
	.st3{fill:#FEFDFD;}
	.st4{fill:#C7102E;}
	.st5{fill:#C81010;}
	.st6{fill:#F8D000;}
	.st7{fill:#183070;}
	.st8{fill:#DD7500;}
	.st9{fill:#CE1126;}
	.st10{fill:#FFC72C;}
	.st11{fill:#FFFF00;}
	.st12{fill:#FCD116;}
	.st13{fill:#BD1021;}
	.st14{fill:#FFC221;}
	.st15{fill:#5A3719;}
	.st16{fill:#7B3C20;}
	.st17{fill:#AA5323;}
	.st18{fill:#999999;}
	.st19{fill:#D22730;}
	.st20{fill:#FED141;}
	.st21{fill:#002F6C;}
	.st22{fill:#007A33;}
	.st23{fill:#C10000;}
	.st24{fill:#FEDD00;}
	.st25{fill:#012169;}
	.st26{fill:none;}
	.st27{fill:#009543;}
	.st28{fill:#FDCE12;}
	.st29{fill:#FCDD09;}
	.st30{fill:#078930;}
	.st31{fill:#0F47AF;}
	.st32{fill:#C8102E;}
	.st33{fill:#00AD50;}
	.st34{fill:#862633;}
	.st35{fill:#215B33;}
</style>
<g>
	<g>
		<defs>
			<path id="SVGID_00000154427634719206131960000007975515452355883420_" d="M30.9,0H861c17.2,0,31,13.8,31,30.9V569
				c0,17.1-13.8,30.9-30.9,30.9H30.9C13.8,600,0,586.2,0,569.1V30.9C0,13.8,13.8,0,30.9,0z"/>
		</defs>
		<use xlink:href="#SVGID_00000154427634719206131960000007975515452355883420_"  style="overflow:visible;fill:#E70013;"/>
		<clipPath id="SVGID_00000093869789983116474010000018409319416732714395_">
			<use xlink:href="#SVGID_00000154427634719206131960000007975515452355883420_"  style="overflow:visible;"/>
		</clipPath>
	</g>
</g>
<path class="st0" d="M446,118.8c-99.9,0-181,81.1-181,181.2s81,181.2,181,181.2c99.9,0,181-81.1,181-181.2S545.9,118.8,446,118.8z
	 M548.1,347.9l-56.2-18.3L457,377.6v-59.2L400.8,300l56.3-18.3v-59.2l34.8,47.9l56.3-18.3L513.3,300L548.1,347.9z M482.2,191.3
	c-60,0-108.6,48.7-108.6,108.7c0,60,48.6,108.7,108.6,108.7c28.4,0,54.2-10.9,73.5-28.7c-24.7,33.9-64.6,55.9-109.7,55.9
	c-75,0-135.7-60.8-135.7-135.9S371,164.1,446,164.1c45.1,0,85,22,109.7,55.9C536.4,202.2,510.6,191.3,482.2,191.3z"/>
<g id="Layer_1_00000078731363050300966280000008357953746711179419_">
	<path class="st2" d="M861.1,6C874.8,6,886,17.2,886,30.9V569c0,13.8-11.2,24.9-24.9,24.9H30.9C17.2,594,6,582.8,6,569.1V30.9
		C6,17.2,17.2,6,30.9,6H861.1 M861.1,0H30.9C13.8,0,0,13.8,0,30.9l0,0V569c0,17.2,13.8,31,30.9,31H861c17.1,0,30.9-13.8,30.9-30.9
		V30.9C892,13.8,878.2,0,861.1,0z"/>
</g>
</svg>
